# xmcd CD database file
#
# Track frame offsets:
#	150
#	12112
#	29652
#	43660
#	61932
#	78105
#	90022
#	109078
#	122486
#	137970
#	153104
#	167148
#
# Disc length: 2409 seconds
#
# Revision: 1
# Processed by: cddbd v1.4PL0 Copyright (c) Steve Scherf et al.
# Submitted via: CDex 1.50beta10
#
DISCID=8709670c
DTITLE=Billy Joe Royal - Stay Close To Home
DYEAR=1998
DGENRE=Country
TTITLE0=Down In The Boondocks
TTITLE1=Stay Close To Home
TTITLE2=Tell It Like It Is
TTITLE3=Till I Can't Take It Anymore
TTITLE4=She's Making A Comeback 
TTITLE5=I Knew You When
TTITLE6=I'll Pin A Note On Your Pillow
TTITLE7=Hush
TTITLE8=One Too Many
TTITLE9=Love Has No Right
TTITLE10=Baby Have Mercy On You
TTITLE11=It Keeps Right On A-Hurtin'
EXTD=YEAR: 1998
EXTT0=
EXTT1=
EXTT2=
EXTT3=
EXTT4=
EXTT5=
EXTT6=
EXTT7=
EXTT8=
EXTT9=
EXTT10=
EXTT11=
PLAYORDER=
